<?xml version="1.0" standalone="no"?>
<!DOCTYPE svg PUBLIC "-//W3C//DTD SVG 20010904//EN"
 "http://www.w3.org/TR/2001/REC-SVG-20010904/DTD/svg10.dtd">
<svg version="1.0" xmlns="http://www.w3.org/2000/svg"
 width="512.000000pt" height="512.000000pt" viewBox="0 0 512.000000 512.000000"
 preserveAspectRatio="xMidYMid meet">
<metadata>
Created by potrace 1.14, written by Peter Selinger 2001-2017
</metadata>
<g transform="translate(0.000000,512.000000) scale(0.100000,-0.100000)"
fill="#000000" stroke="none">
<path d="M2389 4770 c-552 -42 -1070 -282 -1444 -671 -615 -639 -797 -1557
-472 -2384 105 -268 275 -524 491 -741 187 -187 372 -321 591 -429 323 -159
624 -228 990 -228 221 0 337 14 541 64 825 201 1473 877 1643 1716 219 1079
-374 2152 -1404 2538 -281 105 -641 157 -936 135z m-346 -779 c-102 -126 -179
-283 -211 -428 -41 -191 51 -393 240 -521 50 -34 177 -102 192 -102 5 0 -28
38 -73 85 -90 94 -170 209 -196 282 -9 26 -19 85 -22 130 -11 156 58 307 203
442 66 61 232 176 242 167 1 -2 -18 -36 -44 -76 -67 -105 -134 -251 -145 -320
-16 -101 12 -228 72 -315 62 -93 144 -149 344 -235 228 -99 310 -147 452 -262
83 -68 152 -153 191 -235 23 -50 27 -71 26 -148 0 -81 -3 -96 -32 -152 -38
-74 -124 -169 -195 -216 -73 -48 -144 -69 -232 -69 -154 1 -227 84 -210 239 6
61 6 63 -20 73 -14 5 -56 10 -93 10 -122 0 -306 20 -407 45 -237 56 -469 197
-591 358 -97 128 -144 264 -144 415 0 114 20 213 67 335 19 50 39 103 44 116
5 13 11 22 14 20 2 -3 0 -61 -6 -129 -13 -177 14 -347 74 -465 54 -108 165
-212 282 -265 59 -27 174 -60 210 -60 10 0 -31 33 -91 72 -199 132 -309 266
-344 417 -52 222 47 509 239 699 63 62 201 165 209 157 2 -2 -18 -31 -45 -64z
m997 -246 l0 -175 45 0 45 0 0 175 0 175 75 0 75 0 0 -175 0 -175 45 0 45 0 0
175 0 175 79 0 79 0 7 -246 c4 -135 5 -279 3 -319 -5 -71 -6 -74 -60 -138 -89
-104 -98 -201 -26 -262 28 -24 38 -26 80 -21 39 6 51 3 67 -13 36 -36 43 -88
47 -325 2 -145 7 -239 15 -257 13 -32 5 -79 -14 -79 -24 0 -76 40 -92 70 -9
17 -24 77 -35 133 -26 139 -32 157 -78 224 -87 126 -214 223 -523 397 l-155
88 32 81 c45 111 54 180 54 402 0 105 3 207 6 228 l7 37 88 0 89 0 0 -175z
m597 -634 c59 -76 38 -103 -81 -105 l-71 -1 -3 34 c-5 54 6 96 33 126 l25 27
33 -19 c17 -11 46 -38 64 -62z m-189 -1763 c7 -9 41 -30 77 -47 39 -20 80 -50
106 -79 l41 -47 -58 -6 c-33 -4 -131 -7 -220 -8 -147 -1 -162 1 -178 18 -10
11 -40 86 -66 168 -26 81 -77 223 -114 315 -36 92 -66 174 -66 181 0 7 24 21
53 30 136 43 264 176 346 360 15 34 34 76 42 92 12 26 15 -31 19 -466 4 -379
8 -500 18 -511z m-1243 878 c66 -13 162 -30 213 -37 l92 -12 0 -34 c0 -18 6
-48 13 -66 21 -50 126 -140 201 -173 62 -27 67 -31 85 -79 39 -106 85 -389 66
-405 -25 -21 -112 -32 -302 -37 -112 -3 -203 -3 -203 -1 0 3 11 25 24 49 25
44 45 129 31 129 -4 0 -40 -31 -79 -68 -88 -83 -155 -123 -260 -154 l-80 -23
205 -5 c203 -5 206 -5 247 -32 43 -29 87 -71 103 -100 9 -17 -21 -18 -576 -18
l-585 0 0 49 c0 27 9 101 20 164 49 287 160 509 349 698 91 90 153 132 236
161 64 22 59 22 200 -6z"/>
</g>
</svg>
